# MagicaVoxel @ ephtracy

# material
mtllib wide-tower-1.mtl
usemtl palette

# normals
vn -1 0 0
vn 1 0 0
vn 0 0 1
vn 0 0 -1
vn 0 -1 0
vn 0 1 0

# texcoords
vt 0.728516 0.5
vt 0.982422 0.5

# verts
v -50 0 23
v -50 0 -25
v -50 43 23
v -50 43 -25
v -15 0 25
v -15 0 23
v -15 43 23
v -15 43 -25
v -15 50 25
v -15 50 -25
v 9 1 25
v 9 1 21
v 9 10 25
v 9 10 21
v 48 1 21
v 48 1 -23
v 48 15 21
v 48 15 -23
v -48 1 21
v -48 1 -23
v -48 15 21
v -48 15 -23
v -9 1 25
v -9 1 21
v -9 10 25
v -9 10 21
v 15 0 25
v 15 0 23
v 15 43 23
v 15 43 -25
v 15 50 25
v 15 50 -25
v 50 0 23
v 50 0 -25
v 50 43 23
v 50 43 -25
v -15 0 25
v -15 50 25
v -9 1 25
v -9 10 25
v -9 15 25
v -9 19 25
v -9 20 25
v -9 24 25
v -9 25 25
v -9 29 25
v -9 30 25
v -9 34 25
v -9 35 25
v -9 39 25
v -9 40 25
v -9 44 25
v -1 15 25
v -1 19 25
v -1 20 25
v -1 24 25
v -1 25 25
v -1 29 25
v -1 30 25
v -1 34 25
v -1 35 25
v -1 39 25
v -1 40 25
v -1 44 25
v 1 15 25
v 1 19 25
v 1 20 25
v 1 24 25
v 1 25 25
v 1 29 25
v 1 30 25
v 1 34 25
v 1 35 25
v 1 39 25
v 1 40 25
v 1 44 25
v 9 1 25
v 9 10 25
v 9 15 25
v 9 19 25
v 9 20 25
v 9 24 25
v 9 25 25
v 9 29 25
v 9 30 25
v 9 34 25
v 9 35 25
v 9 39 25
v 9 40 25
v 9 44 25
v 15 0 25
v 15 50 25
v -50 0 23
v -50 43 23
v -47 11 23
v -47 16 23
v -47 17 23
v -47 22 23
v -47 23 23
v -47 28 23
v -47 29 23
v -47 34 23
v -47 35 23
v -47 40 23
v -33 11 23
v -33 16 23
v -33 17 23
v -33 22 23
v -33 23 23
v -33 28 23
v -33 29 23
v -33 34 23
v -33 35 23
v -33 40 23
v -32 11 23
v -32 16 23
v -32 17 23
v -32 22 23
v -32 23 23
v -32 28 23
v -32 29 23
v -32 34 23
v -32 35 23
v -32 40 23
v -18 11 23
v -18 16 23
v -18 17 23
v -18 22 23
v -18 23 23
v -18 28 23
v -18 29 23
v -18 34 23
v -18 35 23
v -18 40 23
v -15 0 23
v -15 43 23
v 15 0 23
v 15 43 23
v 18 11 23
v 18 16 23
v 18 17 23
v 18 22 23
v 18 23 23
v 18 28 23
v 18 29 23
v 18 34 23
v 18 35 23
v 18 40 23
v 32 11 23
v 32 16 23
v 32 17 23
v 32 22 23
v 32 23 23
v 32 28 23
v 32 29 23
v 32 34 23
v 32 35 23
v 32 40 23
v 33 11 23
v 33 16 23
v 33 17 23
v 33 22 23
v 33 23 23
v 33 28 23
v 33 29 23
v 33 34 23
v 33 35 23
v 33 40 23
v 47 11 23
v 47 16 23
v 47 17 23
v 47 22 23
v 47 23 23
v 47 28 23
v 47 29 23
v 47 34 23
v 47 35 23
v 47 40 23
v 50 0 23
v 50 43 23
v -48 1 -23
v -48 15 -23
v 48 1 -23
v 48 15 -23
v -48 1 21
v -48 15 21
v -9 1 21
v -9 10 21
v 9 1 21
v 9 10 21
v 48 1 21
v 48 15 21
v -50 0 -25
v -50 43 -25
v -46 11 -25
v -46 16 -25
v -46 17 -25
v -46 22 -25
v -46 23 -25
v -46 28 -25
v -46 29 -25
v -46 34 -25
v -46 35 -25
v -46 40 -25
v -37 11 -25
v -37 16 -25
v -37 17 -25
v -37 22 -25
v -37 23 -25
v -37 28 -25
v -37 29 -25
v -37 34 -25
v -37 35 -25
v -37 40 -25
v -36 11 -25
v -36 16 -25
v -36 17 -25
v -36 22 -25
v -36 23 -25
v -36 28 -25
v -36 29 -25
v -36 34 -25
v -36 35 -25
v -36 40 -25
v -26 11 -25
v -26 16 -25
v -26 17 -25
v -26 22 -25
v -26 23 -25
v -26 28 -25
v -26 29 -25
v -26 34 -25
v -26 35 -25
v -26 40 -25
v -25 11 -25
v -25 16 -25
v -25 17 -25
v -25 22 -25
v -25 23 -25
v -25 28 -25
v -25 29 -25
v -25 34 -25
v -25 35 -25
v -25 40 -25
v -15 11 -25
v -15 16 -25
v -15 17 -25
v -15 22 -25
v -15 23 -25
v -15 28 -25
v -15 29 -25
v -15 34 -25
v -15 35 -25
v -15 40 -25
v -15 43 -25
v -15 50 -25
v -10 11 -25
v -10 16 -25
v -10 17 -25
v -10 22 -25
v -10 23 -25
v -10 28 -25
v -10 29 -25
v -10 34 -25
v -10 35 -25
v -10 40 -25
v -1 11 -25
v -1 16 -25
v -1 17 -25
v -1 22 -25
v -1 23 -25
v -1 28 -25
v -1 29 -25
v -1 34 -25
v -1 35 -25
v -1 40 -25
v 1 11 -25
v 1 16 -25
v 1 17 -25
v 1 22 -25
v 1 23 -25
v 1 28 -25
v 1 29 -25
v 1 34 -25
v 1 35 -25
v 1 40 -25
v 10 11 -25
v 10 16 -25
v 10 17 -25
v 10 22 -25
v 10 23 -25
v 10 28 -25
v 10 29 -25
v 10 34 -25
v 10 35 -25
v 10 40 -25
v 15 11 -25
v 15 16 -25
v 15 17 -25
v 15 22 -25
v 15 23 -25
v 15 28 -25
v 15 29 -25
v 15 34 -25
v 15 35 -25
v 15 40 -25
v 15 43 -25
v 15 50 -25
v 25 11 -25
v 25 16 -25
v 25 17 -25
v 25 22 -25
v 25 23 -25
v 25 28 -25
v 25 29 -25
v 25 34 -25
v 25 35 -25
v 25 40 -25
v 26 11 -25
v 26 16 -25
v 26 17 -25
v 26 22 -25
v 26 23 -25
v 26 28 -25
v 26 29 -25
v 26 34 -25
v 26 35 -25
v 26 40 -25
v 36 11 -25
v 36 16 -25
v 36 17 -25
v 36 22 -25
v 36 23 -25
v 36 28 -25
v 36 29 -25
v 36 34 -25
v 36 35 -25
v 36 40 -25
v 37 11 -25
v 37 16 -25
v 37 17 -25
v 37 22 -25
v 37 23 -25
v 37 28 -25
v 37 29 -25
v 37 34 -25
v 37 35 -25
v 37 40 -25
v 47 11 -25
v 47 16 -25
v 47 17 -25
v 47 22 -25
v 47 23 -25
v 47 28 -25
v 47 29 -25
v 47 34 -25
v 47 35 -25
v 47 40 -25
v 50 0 -25
v 50 43 -25
v -15 0 25
v 15 0 25
v -50 0 23
v -15 0 23
v 15 0 23
v 50 0 23
v -50 0 -25
v 50 0 -25
v -9 10 25
v 9 10 25
v -9 10 21
v 9 10 21
v -48 15 21
v 48 15 21
v -48 15 -23
v 48 15 -23
v -9 1 25
v 9 1 25
v -48 1 21
v -9 1 21
v 9 1 21
v 48 1 21
v -48 1 -23
v 48 1 -23
v -50 43 23
v -15 43 23
v 15 43 23
v 50 43 23
v -50 43 -25
v -15 43 -25
v 15 43 -25
v 50 43 -25
v -15 50 25
v 15 50 25
v -15 50 -25
v 15 50 -25

# faces
f 3/2/1 2/2/1 1/2/1
f 4/2/1 2/2/1 3/2/1
f 7/2/1 6/2/1 5/2/1
f 9/2/1 7/2/1 5/2/1
f 9/2/1 8/2/1 7/2/1
f 10/2/1 8/2/1 9/2/1
f 13/2/1 12/2/1 11/2/1
f 14/2/1 12/2/1 13/2/1
f 17/2/1 16/2/1 15/2/1
f 18/2/1 16/2/1 17/2/1
f 19/2/2 20/2/2 21/2/2
f 21/2/2 20/2/2 22/2/2
f 23/2/2 24/2/2 25/2/2
f 25/2/2 24/2/2 26/2/2
f 27/2/2 28/2/2 29/2/2
f 27/2/2 29/2/2 31/2/2
f 29/2/2 30/2/2 31/2/2
f 31/2/2 30/2/2 32/2/2
f 33/2/2 34/2/2 35/2/2
f 35/2/2 34/2/2 36/2/2
f 39/2/3 38/2/3 37/2/3
f 40/2/3 38/2/3 39/2/3
f 41/2/3 38/2/3 40/2/3
f 42/2/3 38/2/3 41/2/3
f 43/2/3 38/2/3 42/2/3
f 44/2/3 38/2/3 43/2/3
f 45/2/3 38/2/3 44/2/3
f 46/2/3 38/2/3 45/2/3
f 47/2/3 38/2/3 46/2/3
f 48/2/3 38/2/3 47/2/3
f 49/2/3 38/2/3 48/2/3
f 50/2/3 38/2/3 49/2/3
f 51/2/3 38/2/3 50/2/3
f 52/2/3 38/2/3 51/2/3
f 53/2/3 41/2/3 40/2/3
f 53/1/3 42/1/3 41/1/3
f 54/2/3 43/2/3 42/2/3
f 54/1/3 42/1/3 53/1/3
f 55/1/3 44/1/3 43/1/3
f 55/2/3 43/2/3 54/2/3
f 56/2/3 45/2/3 44/2/3
f 56/1/3 44/1/3 55/1/3
f 57/1/3 46/1/3 45/1/3
f 57/2/3 45/2/3 56/2/3
f 58/2/3 47/2/3 46/2/3
f 58/1/3 46/1/3 57/1/3
f 59/1/3 48/1/3 47/1/3
f 59/2/3 47/2/3 58/2/3
f 60/2/3 49/2/3 48/2/3
f 60/1/3 48/1/3 59/1/3
f 61/1/3 50/1/3 49/1/3
f 61/2/3 49/2/3 60/2/3
f 62/2/3 51/2/3 50/2/3
f 62/1/3 50/1/3 61/1/3
f 63/1/3 52/1/3 51/1/3
f 63/2/3 51/2/3 62/2/3
f 64/2/3 38/2/3 52/2/3
f 64/1/3 52/1/3 63/1/3
f 65/2/3 63/2/3 62/2/3
f 65/2/3 62/2/3 61/2/3
f 65/2/3 64/2/3 63/2/3
f 65/2/3 60/2/3 59/2/3
f 65/2/3 59/2/3 58/2/3
f 65/2/3 58/2/3 57/2/3
f 65/2/3 57/2/3 56/2/3
f 65/2/3 56/2/3 55/2/3
f 65/2/3 55/2/3 54/2/3
f 65/2/3 54/2/3 53/2/3
f 65/2/3 53/2/3 40/2/3
f 65/2/3 61/2/3 60/2/3
f 66/2/3 64/2/3 65/2/3
f 67/2/3 64/2/3 66/2/3
f 68/2/3 64/2/3 67/2/3
f 69/2/3 64/2/3 68/2/3
f 70/2/3 64/2/3 69/2/3
f 71/2/3 64/2/3 70/2/3
f 72/2/3 64/2/3 71/2/3
f 73/2/3 64/2/3 72/2/3
f 74/2/3 64/2/3 73/2/3
f 75/2/3 64/2/3 74/2/3
f 76/2/3 38/2/3 64/2/3
f 76/2/3 64/2/3 75/2/3
f 77/2/3 39/2/3 37/2/3
f 78/2/3 65/2/3 40/2/3
f 79/1/3 66/1/3 65/1/3
f 79/2/3 65/2/3 78/2/3
f 80/2/3 67/2/3 66/2/3
f 80/1/3 66/1/3 79/1/3
f 81/1/3 68/1/3 67/1/3
f 81/2/3 67/2/3 80/2/3
f 82/2/3 69/2/3 68/2/3
f 82/1/3 68/1/3 81/1/3
f 83/1/3 70/1/3 69/1/3
f 83/2/3 69/2/3 82/2/3
f 84/2/3 71/2/3 70/2/3
f 84/1/3 70/1/3 83/1/3
f 85/1/3 72/1/3 71/1/3
f 85/2/3 71/2/3 84/2/3
f 86/2/3 73/2/3 72/2/3
f 86/1/3 72/1/3 85/1/3
f 87/1/3 74/1/3 73/1/3
f 87/2/3 73/2/3 86/2/3
f 88/2/3 75/2/3 74/2/3
f 88/1/3 74/1/3 87/1/3
f 89/1/3 76/1/3 75/1/3
f 89/2/3 75/2/3 88/2/3
f 90/2/3 38/2/3 76/2/3
f 90/1/3 76/1/3 89/1/3
f 91/2/3 89/2/3 88/2/3
f 91/2/3 87/2/3 86/2/3
f 91/2/3 90/2/3 89/2/3
f 91/2/3 77/2/3 37/2/3
f 91/2/3 88/2/3 87/2/3
f 91/2/3 86/2/3 85/2/3
f 91/2/3 85/2/3 84/2/3
f 91/2/3 84/2/3 83/2/3
f 91/2/3 83/2/3 82/2/3
f 91/2/3 82/2/3 81/2/3
f 91/2/3 81/2/3 80/2/3
f 91/2/3 80/2/3 79/2/3
f 91/2/3 79/2/3 78/2/3
f 91/2/3 78/2/3 77/2/3
f 92/2/3 38/2/3 90/2/3
f 92/2/3 90/2/3 91/2/3
f 95/2/3 94/2/3 93/2/3
f 96/2/3 94/2/3 95/2/3
f 97/2/3 94/2/3 96/2/3
f 98/2/3 94/2/3 97/2/3
f 99/2/3 94/2/3 98/2/3
f 100/2/3 94/2/3 99/2/3
f 101/2/3 94/2/3 100/2/3
f 102/2/3 94/2/3 101/2/3
f 103/2/3 94/2/3 102/2/3
f 104/2/3 94/2/3 103/2/3
f 105/2/3 95/2/3 93/2/3
f 105/1/3 96/1/3 95/1/3
f 106/2/3 97/2/3 96/2/3
f 106/1/3 96/1/3 105/1/3
f 107/1/3 98/1/3 97/1/3
f 107/2/3 97/2/3 106/2/3
f 108/2/3 99/2/3 98/2/3
f 108/1/3 98/1/3 107/1/3
f 109/1/3 100/1/3 99/1/3
f 109/2/3 99/2/3 108/2/3
f 110/2/3 101/2/3 100/2/3
f 110/1/3 100/1/3 109/1/3
f 111/1/3 102/1/3 101/1/3
f 111/2/3 101/2/3 110/2/3
f 112/2/3 103/2/3 102/2/3
f 112/1/3 102/1/3 111/1/3
f 113/1/3 104/1/3 103/1/3
f 113/2/3 103/2/3 112/2/3
f 114/2/3 94/2/3 104/2/3
f 114/1/3 104/1/3 113/1/3
f 115/2/3 113/2/3 112/2/3
f 115/2/3 112/2/3 111/2/3
f 115/2/3 114/2/3 113/2/3
f 115/2/3 111/2/3 110/2/3
f 115/2/3 110/2/3 109/2/3
f 115/2/3 109/2/3 108/2/3
f 115/2/3 108/2/3 107/2/3
f 115/2/3 107/2/3 106/2/3
f 115/2/3 106/2/3 105/2/3
f 115/2/3 105/2/3 93/2/3
f 116/2/3 114/2/3 115/2/3
f 117/2/3 114/2/3 116/2/3
f 118/2/3 114/2/3 117/2/3
f 119/2/3 114/2/3 118/2/3
f 120/2/3 114/2/3 119/2/3
f 121/2/3 114/2/3 120/2/3
f 122/2/3 114/2/3 121/2/3
f 123/2/3 114/2/3 122/2/3
f 124/2/3 94/2/3 114/2/3
f 124/2/3 114/2/3 123/2/3
f 125/2/3 115/2/3 93/2/3
f 125/1/3 116/1/3 115/1/3
f 126/2/3 117/2/3 116/2/3
f 126/1/3 116/1/3 125/1/3
f 127/1/3 118/1/3 117/1/3
f 127/2/3 117/2/3 126/2/3
f 128/2/3 119/2/3 118/2/3
f 128/1/3 118/1/3 127/1/3
f 129/1/3 120/1/3 119/1/3
f 129/2/3 119/2/3 128/2/3
f 130/2/3 121/2/3 120/2/3
f 130/1/3 120/1/3 129/1/3
f 131/1/3 122/1/3 121/1/3
f 131/2/3 121/2/3 130/2/3
f 132/2/3 123/2/3 122/2/3
f 132/1/3 122/1/3 131/1/3
f 133/1/3 124/1/3 123/1/3
f 133/2/3 123/2/3 132/2/3
f 134/2/3 94/2/3 124/2/3
f 134/1/3 124/1/3 133/1/3
f 135/2/3 131/2/3 130/2/3
f 135/2/3 133/2/3 132/2/3
f 135/2/3 134/2/3 133/2/3
f 135/2/3 130/2/3 129/2/3
f 135/2/3 129/2/3 128/2/3
f 135/2/3 128/2/3 127/2/3
f 135/2/3 127/2/3 126/2/3
f 135/2/3 126/2/3 125/2/3
f 135/2/3 125/2/3 93/2/3
f 135/2/3 132/2/3 131/2/3
f 136/2/3 94/2/3 134/2/3
f 136/2/3 134/2/3 135/2/3
f 139/2/3 138/2/3 137/2/3
f 140/2/3 138/2/3 139/2/3
f 141/2/3 138/2/3 140/2/3
f 142/2/3 138/2/3 141/2/3
f 143/2/3 138/2/3 142/2/3
f 144/2/3 138/2/3 143/2/3
f 145/2/3 138/2/3 144/2/3
f 146/2/3 138/2/3 145/2/3
f 147/2/3 138/2/3 146/2/3
f 148/2/3 138/2/3 147/2/3
f 149/2/3 139/2/3 137/2/3
f 149/1/3 140/1/3 139/1/3
f 150/2/3 141/2/3 140/2/3
f 150/1/3 140/1/3 149/1/3
f 151/1/3 142/1/3 141/1/3
f 151/2/3 141/2/3 150/2/3
f 152/2/3 143/2/3 142/2/3
f 152/1/3 142/1/3 151/1/3
f 153/1/3 144/1/3 143/1/3
f 153/2/3 143/2/3 152/2/3
f 154/2/3 145/2/3 144/2/3
f 154/1/3 144/1/3 153/1/3
f 155/1/3 146/1/3 145/1/3
f 155/2/3 145/2/3 154/2/3
f 156/2/3 147/2/3 146/2/3
f 156/1/3 146/1/3 155/1/3
f 157/1/3 148/1/3 147/1/3
f 157/2/3 147/2/3 156/2/3
f 158/2/3 138/2/3 148/2/3
f 158/1/3 148/1/3 157/1/3
f 159/2/3 157/2/3 156/2/3
f 159/2/3 156/2/3 155/2/3
f 159/2/3 158/2/3 157/2/3
f 159/2/3 155/2/3 154/2/3
f 159/2/3 154/2/3 153/2/3
f 159/2/3 153/2/3 152/2/3
f 159/2/3 152/2/3 151/2/3
f 159/2/3 151/2/3 150/2/3
f 159/2/3 150/2/3 149/2/3
f 159/2/3 149/2/3 137/2/3
f 160/2/3 158/2/3 159/2/3
f 161/2/3 158/2/3 160/2/3
f 162/2/3 158/2/3 161/2/3
f 163/2/3 158/2/3 162/2/3
f 164/2/3 158/2/3 163/2/3
f 165/2/3 158/2/3 164/2/3
f 166/2/3 158/2/3 165/2/3
f 167/2/3 158/2/3 166/2/3
f 168/2/3 138/2/3 158/2/3
f 168/2/3 158/2/3 167/2/3
f 169/2/3 159/2/3 137/2/3
f 169/1/3 160/1/3 159/1/3
f 170/2/3 161/2/3 160/2/3
f 170/1/3 160/1/3 169/1/3
f 171/1/3 162/1/3 161/1/3
f 171/2/3 161/2/3 170/2/3
f 172/2/3 163/2/3 162/2/3
f 172/1/3 162/1/3 171/1/3
f 173/1/3 164/1/3 163/1/3
f 173/2/3 163/2/3 172/2/3
f 174/2/3 165/2/3 164/2/3
f 174/1/3 164/1/3 173/1/3
f 175/1/3 166/1/3 165/1/3
f 175/2/3 165/2/3 174/2/3
f 176/2/3 167/2/3 166/2/3
f 176/1/3 166/1/3 175/1/3
f 177/1/3 168/1/3 167/1/3
f 177/2/3 167/2/3 176/2/3
f 178/2/3 138/2/3 168/2/3
f 178/1/3 168/1/3 177/1/3
f 179/2/3 175/2/3 174/2/3
f 179/2/3 177/2/3 176/2/3
f 179/2/3 178/2/3 177/2/3
f 179/2/3 174/2/3 173/2/3
f 179/2/3 173/2/3 172/2/3
f 179/2/3 172/2/3 171/2/3
f 179/2/3 171/2/3 170/2/3
f 179/2/3 170/2/3 169/2/3
f 179/2/3 169/2/3 137/2/3
f 179/2/3 176/2/3 175/2/3
f 180/2/3 138/2/3 178/2/3
f 180/2/3 178/2/3 179/2/3
f 183/2/3 182/2/3 181/2/3
f 184/2/3 182/2/3 183/2/3
f 185/2/4 186/2/4 187/2/4
f 187/2/4 186/2/4 188/2/4
f 188/2/4 186/2/4 190/2/4
f 189/2/4 190/2/4 191/2/4
f 190/2/4 186/2/4 192/2/4
f 191/2/4 190/2/4 192/2/4
f 193/2/4 194/2/4 195/2/4
f 195/2/4 194/2/4 196/2/4
f 196/2/4 194/2/4 197/2/4
f 197/2/4 194/2/4 198/2/4
f 198/2/4 194/2/4 199/2/4
f 199/2/4 194/2/4 200/2/4
f 200/2/4 194/2/4 201/2/4
f 201/2/4 194/2/4 202/2/4
f 202/2/4 194/2/4 203/2/4
f 203/2/4 194/2/4 204/2/4
f 193/2/4 195/2/4 205/2/4
f 195/1/4 196/1/4 205/1/4
f 196/2/4 197/2/4 206/2/4
f 205/1/4 196/1/4 206/1/4
f 197/1/4 198/1/4 207/1/4
f 206/2/4 197/2/4 207/2/4
f 198/2/4 199/2/4 208/2/4
f 207/1/4 198/1/4 208/1/4
f 199/1/4 200/1/4 209/1/4
f 208/2/4 199/2/4 209/2/4
f 200/2/4 201/2/4 210/2/4
f 209/1/4 200/1/4 210/1/4
f 201/1/4 202/1/4 211/1/4
f 210/2/4 201/2/4 211/2/4
f 202/2/4 203/2/4 212/2/4
f 211/1/4 202/1/4 212/1/4
f 203/1/4 204/1/4 213/1/4
f 212/2/4 203/2/4 213/2/4
f 204/2/4 194/2/4 214/2/4
f 213/1/4 204/1/4 214/1/4
f 212/2/4 213/2/4 215/2/4
f 211/2/4 212/2/4 215/2/4
f 213/2/4 214/2/4 215/2/4
f 210/2/4 211/2/4 215/2/4
f 209/2/4 210/2/4 215/2/4
f 208/2/4 209/2/4 215/2/4
f 207/2/4 208/2/4 215/2/4
f 206/2/4 207/2/4 215/2/4
f 205/2/4 206/2/4 215/2/4
f 193/2/4 205/2/4 215/2/4
f 215/2/4 214/2/4 216/2/4
f 216/2/4 214/2/4 217/2/4
f 217/2/4 214/2/4 218/2/4
f 218/2/4 214/2/4 219/2/4
f 219/2/4 214/2/4 220/2/4
f 220/2/4 214/2/4 221/2/4
f 221/2/4 214/2/4 222/2/4
f 222/2/4 214/2/4 223/2/4
f 214/2/4 194/2/4 224/2/4
f 223/2/4 214/2/4 224/2/4
f 193/2/4 215/2/4 225/2/4
f 215/1/4 216/1/4 225/1/4
f 216/2/4 217/2/4 226/2/4
f 225/1/4 216/1/4 226/1/4
f 217/1/4 218/1/4 227/1/4
f 226/2/4 217/2/4 227/2/4
f 218/2/4 219/2/4 228/2/4
f 227/1/4 218/1/4 228/1/4
f 219/1/4 220/1/4 229/1/4
f 228/2/4 219/2/4 229/2/4
f 220/2/4 221/2/4 230/2/4
f 229/1/4 220/1/4 230/1/4
f 221/1/4 222/1/4 231/1/4
f 230/2/4 221/2/4 231/2/4
f 222/2/4 223/2/4 232/2/4
f 231/1/4 222/1/4 232/1/4
f 223/1/4 224/1/4 233/1/4
f 232/2/4 223/2/4 233/2/4
f 224/2/4 194/2/4 234/2/4
f 233/1/4 224/1/4 234/1/4
f 230/2/4 231/2/4 235/2/4
f 232/2/4 233/2/4 235/2/4
f 233/2/4 234/2/4 235/2/4
f 229/2/4 230/2/4 235/2/4
f 228/2/4 229/2/4 235/2/4
f 227/2/4 228/2/4 235/2/4
f 226/2/4 227/2/4 235/2/4
f 225/2/4 226/2/4 235/2/4
f 193/2/4 225/2/4 235/2/4
f 231/2/4 232/2/4 235/2/4
f 235/2/4 234/2/4 236/2/4
f 236/2/4 234/2/4 237/2/4
f 237/2/4 234/2/4 238/2/4
f 238/2/4 234/2/4 239/2/4
f 239/2/4 234/2/4 240/2/4
f 240/2/4 234/2/4 241/2/4
f 241/2/4 234/2/4 242/2/4
f 242/2/4 234/2/4 243/2/4
f 234/2/4 194/2/4 244/2/4
f 243/2/4 234/2/4 244/2/4
f 193/2/4 235/2/4 245/2/4
f 235/1/4 236/1/4 245/1/4
f 236/2/4 237/2/4 246/2/4
f 245/1/4 236/1/4 246/1/4
f 237/1/4 238/1/4 247/1/4
f 246/2/4 237/2/4 247/2/4
f 238/2/4 239/2/4 248/2/4
f 247/1/4 238/1/4 248/1/4
f 239/1/4 240/1/4 249/1/4
f 248/2/4 239/2/4 249/2/4
f 240/2/4 241/2/4 250/2/4
f 249/1/4 240/1/4 250/1/4
f 241/1/4 242/1/4 251/1/4
f 250/2/4 241/2/4 251/2/4
f 242/2/4 243/2/4 252/2/4
f 251/1/4 242/1/4 252/1/4
f 243/1/4 244/1/4 253/1/4
f 252/2/4 243/2/4 253/2/4
f 244/2/4 194/2/4 254/2/4
f 253/1/4 244/1/4 254/1/4
f 254/2/4 194/2/4 255/2/4
f 250/2/4 251/2/4 257/2/4
f 255/2/4 256/2/4 257/2/4
f 254/2/4 255/2/4 257/2/4
f 253/2/4 254/2/4 257/2/4
f 249/2/4 250/2/4 257/2/4
f 248/2/4 249/2/4 257/2/4
f 247/2/4 248/2/4 257/2/4
f 246/2/4 247/2/4 257/2/4
f 245/2/4 246/2/4 257/2/4
f 193/2/4 245/2/4 257/2/4
f 251/2/4 252/2/4 257/2/4
f 252/2/4 253/2/4 257/2/4
f 257/2/4 256/2/4 258/2/4
f 258/2/4 256/2/4 259/2/4
f 259/2/4 256/2/4 260/2/4
f 260/2/4 256/2/4 261/2/4
f 261/2/4 256/2/4 262/2/4
f 262/2/4 256/2/4 263/2/4
f 263/2/4 256/2/4 264/2/4
f 264/2/4 256/2/4 265/2/4
f 265/2/4 256/2/4 266/2/4
f 193/2/4 257/2/4 267/2/4
f 257/1/4 258/1/4 267/1/4
f 258/2/4 259/2/4 268/2/4
f 267/1/4 258/1/4 268/1/4
f 259/1/4 260/1/4 269/1/4
f 268/2/4 259/2/4 269/2/4
f 260/2/4 261/2/4 270/2/4
f 269/1/4 260/1/4 270/1/4
f 261/1/4 262/1/4 271/1/4
f 270/2/4 261/2/4 271/2/4
f 262/2/4 263/2/4 272/2/4
f 271/1/4 262/1/4 272/1/4
f 263/1/4 264/1/4 273/1/4
f 272/2/4 263/2/4 273/2/4
f 264/2/4 265/2/4 274/2/4
f 273/1/4 264/1/4 274/1/4
f 265/1/4 266/1/4 275/1/4
f 274/2/4 265/2/4 275/2/4
f 266/2/4 256/2/4 276/2/4
f 275/1/4 266/1/4 276/1/4
f 274/2/4 275/2/4 277/2/4
f 273/2/4 274/2/4 277/2/4
f 275/2/4 276/2/4 277/2/4
f 272/2/4 273/2/4 277/2/4
f 271/2/4 272/2/4 277/2/4
f 270/2/4 271/2/4 277/2/4
f 269/2/4 270/2/4 277/2/4
f 268/2/4 269/2/4 277/2/4
f 267/2/4 268/2/4 277/2/4
f 193/2/4 267/2/4 277/2/4
f 277/2/4 276/2/4 278/2/4
f 278/2/4 276/2/4 279/2/4
f 279/2/4 276/2/4 280/2/4
f 280/2/4 276/2/4 281/2/4
f 281/2/4 276/2/4 282/2/4
f 282/2/4 276/2/4 283/2/4
f 283/2/4 276/2/4 284/2/4
f 284/2/4 276/2/4 285/2/4
f 276/2/4 256/2/4 286/2/4
f 285/2/4 276/2/4 286/2/4
f 193/2/4 277/2/4 287/2/4
f 277/1/4 278/1/4 287/1/4
f 278/2/4 279/2/4 288/2/4
f 287/1/4 278/1/4 288/1/4
f 279/1/4 280/1/4 289/1/4
f 288/2/4 279/2/4 289/2/4
f 280/2/4 281/2/4 290/2/4
f 289/1/4 280/1/4 290/1/4
f 281/1/4 282/1/4 291/1/4
f 290/2/4 281/2/4 291/2/4
f 282/2/4 283/2/4 292/2/4
f 291/1/4 282/1/4 292/1/4
f 283/1/4 284/1/4 293/1/4
f 292/2/4 283/2/4 293/2/4
f 284/2/4 285/2/4 294/2/4
f 293/1/4 284/1/4 294/1/4
f 285/1/4 286/1/4 295/1/4
f 294/2/4 285/2/4 295/2/4
f 286/2/4 256/2/4 296/2/4
f 295/1/4 286/1/4 296/1/4
f 292/2/4 293/2/4 297/2/4
f 294/2/4 295/2/4 297/2/4
f 295/2/4 296/2/4 297/2/4
f 291/2/4 292/2/4 297/2/4
f 290/2/4 291/2/4 297/2/4
f 289/2/4 290/2/4 297/2/4
f 288/2/4 289/2/4 297/2/4
f 287/2/4 288/2/4 297/2/4
f 193/2/4 287/2/4 297/2/4
f 293/2/4 294/2/4 297/2/4
f 297/2/4 296/2/4 298/2/4
f 298/2/4 296/2/4 299/2/4
f 299/2/4 296/2/4 300/2/4
f 300/2/4 296/2/4 301/2/4
f 301/2/4 296/2/4 302/2/4
f 302/2/4 296/2/4 303/2/4
f 303/2/4 296/2/4 304/2/4
f 304/2/4 296/2/4 305/2/4
f 296/2/4 256/2/4 306/2/4
f 305/2/4 296/2/4 306/2/4
f 306/2/4 256/2/4 307/2/4
f 307/2/4 256/2/4 308/2/4
f 193/2/4 297/2/4 309/2/4
f 297/1/4 298/1/4 309/1/4
f 298/2/4 299/2/4 310/2/4
f 309/1/4 298/1/4 310/1/4
f 299/1/4 300/1/4 311/1/4
f 310/2/4 299/2/4 311/2/4
f 300/2/4 301/2/4 312/2/4
f 311/1/4 300/1/4 312/1/4
f 301/1/4 302/1/4 313/1/4
f 312/2/4 301/2/4 313/2/4
f 302/2/4 303/2/4 314/2/4
f 313/1/4 302/1/4 314/1/4
f 303/1/4 304/1/4 315/1/4
f 314/2/4 303/2/4 315/2/4
f 304/2/4 305/2/4 316/2/4
f 315/1/4 304/1/4 316/1/4
f 305/1/4 306/1/4 317/1/4
f 316/2/4 305/2/4 317/2/4
f 306/2/4 307/2/4 318/2/4
f 317/1/4 306/1/4 318/1/4
f 314/2/4 315/2/4 319/2/4
f 316/2/4 317/2/4 319/2/4
f 317/2/4 318/2/4 319/2/4
f 315/2/4 316/2/4 319/2/4
f 313/2/4 314/2/4 319/2/4
f 312/2/4 313/2/4 319/2/4
f 311/2/4 312/2/4 319/2/4
f 310/2/4 311/2/4 319/2/4
f 309/2/4 310/2/4 319/2/4
f 193/2/4 309/2/4 319/2/4
f 319/2/4 318/2/4 320/2/4
f 320/2/4 318/2/4 321/2/4
f 321/2/4 318/2/4 322/2/4
f 322/2/4 318/2/4 323/2/4
f 323/2/4 318/2/4 324/2/4
f 324/2/4 318/2/4 325/2/4
f 325/2/4 318/2/4 326/2/4
f 326/2/4 318/2/4 327/2/4
f 318/2/4 307/2/4 328/2/4
f 327/2/4 318/2/4 328/2/4
f 193/2/4 319/2/4 329/2/4
f 319/1/4 320/1/4 329/1/4
f 320/2/4 321/2/4 330/2/4
f 329/1/4 320/1/4 330/1/4
f 321/1/4 322/1/4 331/1/4
f 330/2/4 321/2/4 331/2/4
f 322/2/4 323/2/4 332/2/4
f 331/1/4 322/1/4 332/1/4
f 323/1/4 324/1/4 333/1/4
f 332/2/4 323/2/4 333/2/4
f 324/2/4 325/2/4 334/2/4
f 333/1/4 324/1/4 334/1/4
f 325/1/4 326/1/4 335/1/4
f 334/2/4 325/2/4 335/2/4
f 326/2/4 327/2/4 336/2/4
f 335/1/4 326/1/4 336/1/4
f 327/1/4 328/1/4 337/1/4
f 336/2/4 327/2/4 337/2/4
f 328/2/4 307/2/4 338/2/4
f 337/1/4 328/1/4 338/1/4
f 334/2/4 335/2/4 339/2/4
f 336/2/4 337/2/4 339/2/4
f 337/2/4 338/2/4 339/2/4
f 333/2/4 334/2/4 339/2/4
f 332/2/4 333/2/4 339/2/4
f 331/2/4 332/2/4 339/2/4
f 330/2/4 331/2/4 339/2/4
f 329/2/4 330/2/4 339/2/4
f 193/2/4 329/2/4 339/2/4
f 335/2/4 336/2/4 339/2/4
f 339/2/4 338/2/4 340/2/4
f 340/2/4 338/2/4 341/2/4
f 341/2/4 338/2/4 342/2/4
f 342/2/4 338/2/4 343/2/4
f 343/2/4 338/2/4 344/2/4
f 344/2/4 338/2/4 345/2/4
f 345/2/4 338/2/4 346/2/4
f 346/2/4 338/2/4 347/2/4
f 338/2/4 307/2/4 348/2/4
f 347/2/4 338/2/4 348/2/4
f 193/2/4 339/2/4 349/2/4
f 339/1/4 340/1/4 349/1/4
f 340/2/4 341/2/4 350/2/4
f 349/1/4 340/1/4 350/1/4
f 341/1/4 342/1/4 351/1/4
f 350/2/4 341/2/4 351/2/4
f 342/2/4 343/2/4 352/2/4
f 351/1/4 342/1/4 352/1/4
f 343/1/4 344/1/4 353/1/4
f 352/2/4 343/2/4 353/2/4
f 344/2/4 345/2/4 354/2/4
f 353/1/4 344/1/4 354/1/4
f 345/1/4 346/1/4 355/1/4
f 354/2/4 345/2/4 355/2/4
f 346/2/4 347/2/4 356/2/4
f 355/1/4 346/1/4 356/1/4
f 347/1/4 348/1/4 357/1/4
f 356/2/4 347/2/4 357/2/4
f 348/2/4 307/2/4 358/2/4
f 357/1/4 348/1/4 358/1/4
f 354/2/4 355/2/4 359/2/4
f 356/2/4 357/2/4 359/2/4
f 357/2/4 358/2/4 359/2/4
f 353/2/4 354/2/4 359/2/4
f 352/2/4 353/2/4 359/2/4
f 351/2/4 352/2/4 359/2/4
f 350/2/4 351/2/4 359/2/4
f 349/2/4 350/2/4 359/2/4
f 193/2/4 349/2/4 359/2/4
f 355/2/4 356/2/4 359/2/4
f 358/2/4 307/2/4 360/2/4
f 359/2/4 358/2/4 360/2/4
f 364/2/5 362/2/5 361/2/5
f 365/2/5 362/2/5 364/2/5
f 367/2/5 364/2/5 363/2/5
f 367/2/5 366/2/5 365/2/5
f 367/2/5 365/2/5 364/2/5
f 368/2/5 366/2/5 367/2/5
f 371/2/5 370/2/5 369/2/5
f 372/2/5 370/2/5 371/2/5
f 375/2/5 374/2/5 373/2/5
f 376/2/5 374/2/5 375/2/5
f 377/2/6 378/2/6 380/2/6
f 380/2/6 378/2/6 381/2/6
f 379/2/6 380/2/6 383/2/6
f 381/2/6 382/2/6 383/2/6
f 380/2/6 381/2/6 383/2/6
f 383/2/6 382/2/6 384/2/6
f 385/2/6 386/2/6 389/2/6
f 389/2/6 386/2/6 390/2/6
f 387/2/6 388/2/6 391/2/6
f 391/2/6 388/2/6 392/2/6
f 393/2/6 394/2/6 395/2/6
f 395/2/6 394/2/6 396/2/6
